{"title":"Mama Manchu Alludu Kanchu 2015 TVRip Telugu Movies xviD-TvMovize","uid":13942447,"size":736854292,"categoryP":"video","categoryS":"movies","magnet":"?xt=urn:btih:67f5cc8b6ee0d503e29c5f42060d829ed7f7c407&amp;dn=Mama+Manchu+Alludu+Kanchu+2015+TVRip+Telugu+Movies+xviD-TvMovize&amp;tr=udp%3A%2F%2Ftracker.leechers-paradise.org%3A6969&amp;tr=udp%3A%2F%2Fzer0day.ch%3A1337&amp;tr=udp%3A%2F%2Fopen.demonii.com%3A1337&amp;tr=udp%3A%2F%2Ftracker.coppersurfer.tk%3A6969&amp;tr=udp%3A%2F%2Fexodus.desync.com%3A6969","seeders":1,"leechers":1,"uploader":"TvMovize","files":1,"time":1458476044,"description":"Mama Manchu Alludu Kanchu 2015 TVRip Telugu Movies xviD-TvMovize.mp4\r\n\r\n++ ScreenShots ++\r\n \nhttp://www.image2be.com/movie/MamaManchuAlluduKanchu/1.html  \nhttp://www.image2be.com/movie/MamaManchuAlluduKanchu/2.html  \nhttp://www.image2be.com/movie/MamaManchuAlluduKanchu/3.html  \nhttp://www.image2be.com/movie/MamaManchuAlluduKanchu/4.html  \nhttp://www.image2be.com/movie/MamaManchuAlluduKanchu/5.html \r\n\r\n++ Info ++\r\n\r\nFormat : MPEG-4 \r\nFormat profile : Base Media \r\nCodec ID : isom (isom/iso2/avc1/mp41) \r\nFile size : 703 MiB \r\nDuration : 1h 46mn \r\nOverall bit rate : 923 Kbps \r\nMovie name : [Team Jaffa] \r\nWriting application : Lavf57.20.100 \r\n\r\nVideo \r\nID : 1 \r\nFormat : AVC \r\nFormat/Info : Advanced Video Codec \r\nFormat profile :    \r\nFormat settings, CABAC : Yes \r\nFormat settings, ReFrames : 4 frames \r\nCodec ID : avc1 \r\nCodec ID/Info : Advanced Video Coding \r\nDuration : 1h 46mn \r\nBit rate : 866 Kbps \r\nWidth : 624 pixels \r\nHeight : 272 pixels \r\nDisplay aspect ratio : 2.25:1 \r\nFrame rate mode : Variable \r\nFrame rate : 30.000 fps \r\nMinimum frame rate : 29.412 fps \r\nMaximum frame rate : 30.303 fps \r\nColor space : YUV \r\nChroma subsampling : 4:2:0 \r\nBit depth : 8 bits \r\nScan type : Progressive \r\nBits/(Pixel*Frame) : 0.170 \r\nStream size : 660 MiB (94%) \r\nTitle : [Team Jaffa] \r\nWriting library : x264 core 146 r2538 121396c \r\nEncoding settings : cabac=1 / ref=3 / deblock=1:0:0 / analyse=0x3:0x113 / me=hex / subme=7 / psy=1 / psy_rd=1.00:0.00 / mixed_ref=1 / me_range=16 / chroma_me=1 / trellis=1 / 8x8dct=1 / cqm=0 / deadzone=21,11 / fast_pskip=1 / chroma_qp_offset=-2 / threads=12 / lookahead_threads=2 / sliced_threads=0 / nr=0 / decimate=1 / interlaced=0 / bluray_compat=0 / constrained_intra=0 / bframes=3 / b_pyramid=2 / b_adapt=1 / b_bias=0 / direct=1 / weightb=1 / open_gop=0 / weightp=2 / keyint=300 / keyint_min=30 / scenecut=40 / intra_refresh=0 / rc_lookahead=40 / rc=2pass / mbtree=1 / bitrate=866 / ratetol=1.0 / qcomp=0.60 / qpmin=0 / qpmax=69 / qpstep=4 / cplxblur=20.0 / qblur=0.5 / ip_ratio=1.40 / aq=1:1.00 \r\n\r\nAudio \r\nID : 2 \r\nFormat : AAC \r\nFormat/Info : Advanced Audio Codec \r\nFormat profile : HE-AAC / LC \r\nCodec ID : 40 \r\nDuration : 1h 46mn \r\nBit rate mode : Constant \r\nBit rate : 48.0 Kbps \r\nChannel(s) : 2 channels \r\nChannel positions : Front: L R \r\nSampling rate : 44.1 KHz / 22.05 KHz \r\nFrame rate : 21.533 fps (1024 spf) \r\nCompression mode : Lossy \r\nStream size : 36.6 MiB (5%) \r\nTitle : [Team Jaffa] \r\nDefault : Yes \r\nAlternate group : 1","torrent":{"xt":"urn:btih:67f5cc8b6ee0d503e29c5f42060d829ed7f7c407","amp;dn":"Mama+Manchu+Alludu+Kanchu+2015+TVRip+Telugu+Movies+xviD-TvMovize","amp;tr":["udp%3A%2F%2Ftracker.leechers-paradise.org%3A6969","udp%3A%2F%2Fzer0day.ch%3A1337","udp%3A%2F%2Fopen.demonii.com%3A1337","udp%3A%2F%2Ftracker.coppersurfer.tk%3A6969","udp%3A%2F%2Fexodus.desync.com%3A6969"],"infoHash":"67f5cc8b6ee0d503e29c5f42060d829ed7f7c407","infoHashBuffer":{"type":"Buffer","data":[103,245,204,139,110,224,213,3,226,156,95,66,6,13,130,158,215,247,196,7]},"announce":[],"urlList":[]}}